<?xml version="1.0" standalone="no"?><!DOCTYPE svg PUBLIC "-//W3C//DTD SVG 1.1//EN" "http://www.w3.org/Graphics/SVG/1.1/DTD/svg11.dtd"><svg t="1642432616761" class="icon" viewBox="0 0 1088 1024" version="1.1" xmlns="http://www.w3.org/2000/svg" p-id="2567" width="51" height="48" xmlns:xlink="http://www.w3.org/1999/xlink"><defs><style type="text/css"></style></defs><path d="M92.352 269.248l408.128 408.32a38.4 38.4 0 0 0 50.24 2.432 34.048 34.048 0 0 0 2.688-2.368l408.192-408.384a47.936 47.936 0 0 1 62.656-3.008 37.12 37.12 0 0 1 3.328 56.32L619.392 730.88c-2.944 2.944-6.08 5.76-9.344 8.448-51.072 41.216-129.664 37.44-175.552-8.448L26.304 322.56a37.12 37.12 0 0 1 3.392-56.32 47.936 47.936 0 0 1 62.656 3.008z" p-id="2568" fill="#FFFFFF"></path></svg>